<svg width="48" height="48" viewBox="0 0 48 48" fill="none" xmlns="http://www.w3.org/2000/svg">
<path d="M24.1 20.0078C26.5609 20.0078 28.5922 22.0391 28.5922 24.5C28.5922 27 26.5609 28.9922 24.1 28.9922C21.6 28.9922 19.6078 27 19.6078 24.5C19.6078 22.0391 21.6 20.0078 24.1 20.0078ZM24.1 27.4297C25.7016 27.4297 26.9906 26.1406 26.9906 24.5C26.9906 22.8984 25.7016 21.6094 24.1 21.6094C22.4594 21.6094 21.1703 22.8984 21.1703 24.5C21.1703 26.1406 22.4984 27.4297 24.1 27.4297ZM29.8031 19.8516C29.8031 20.4375 29.3344 20.9062 28.7484 20.9062C28.1625 20.9062 27.6938 20.4375 27.6938 19.8516C27.6938 19.2656 28.1625 18.7969 28.7484 18.7969C29.3344 18.7969 29.8031 19.2656 29.8031 19.8516ZM32.7719 20.9062C32.85 22.3516 32.85 26.6875 32.7719 28.1328C32.6938 29.5391 32.3813 30.75 31.3656 31.8047C30.35 32.8203 29.1 33.1328 27.6938 33.2109C26.2484 33.2891 21.9125 33.2891 20.4672 33.2109C19.0609 33.1328 17.85 32.8203 16.7953 31.8047C15.7797 30.75 15.4672 29.5391 15.3891 28.1328C15.3109 26.6875 15.3109 22.3516 15.3891 20.9062C15.4672 19.5 15.7797 18.25 16.7953 17.2344C17.85 16.2188 19.0609 15.9062 20.4672 15.8281C21.9125 15.75 26.2484 15.75 27.6938 15.8281C29.1 15.9062 30.35 16.2188 31.3656 17.2344C32.3813 18.25 32.6938 19.5 32.7719 20.9062ZM30.8969 29.6562C31.3656 28.5234 31.2484 25.7891 31.2484 24.5C31.2484 23.25 31.3656 20.5156 30.8969 19.3438C30.5844 18.6016 29.9984 17.9766 29.2563 17.7031C28.0844 17.2344 25.35 17.3516 24.1 17.3516C22.8109 17.3516 20.0766 17.2344 18.9438 17.7031C18.1625 18.0156 17.5766 18.6016 17.2641 19.3438C16.7953 20.5156 16.9125 23.25 16.9125 24.5C16.9125 25.7891 16.7953 28.5234 17.2641 29.6562C17.5766 30.4375 18.1625 31.0234 18.9438 31.3359C20.0766 31.8047 22.8109 31.6875 24.1 31.6875C25.35 31.6875 28.0844 31.8047 29.2563 31.3359C29.9984 31.0234 30.6234 30.4375 30.8969 29.6562Z" fill="white"/>
<rect x="1" y="1" width="46" height="46" rx="23" stroke="#FC3792" stroke-width="2"/>
</svg>
