<svg width="16" height="17" viewBox="0 0 16 17" fill="none" xmlns="http://www.w3.org/2000/svg">
<path d="M15.85 8.48047C15.85 12.7617 12.35 16.2305 8.1 16.2305C3.81875 16.2305 0.35 12.7617 0.35 8.48047C0.35 4.23047 3.81875 0.730469 8.1 0.730469C12.35 0.730469 15.85 4.23047 15.85 8.48047ZM7.19375 12.6055L12.9438 6.85547C13.1313 6.66797 13.1313 6.32422 12.9438 6.13672L12.225 5.44922C12.0375 5.23047 11.725 5.23047 11.5375 5.44922L6.85 10.1367L4.63125 7.94922C4.44375 7.73047 4.13125 7.73047 3.94375 7.94922L3.225 8.63672C3.0375 8.82422 3.0375 9.16797 3.225 9.35547L6.475 12.6055C6.6625 12.793 7.00625 12.793 7.19375 12.6055Z" fill="#FC3792"/>
</svg>
